<svg width="363" height="90" xmlns="http://www.w3.org/2000/svg" xmlns:svg="http://www.w3.org/2000/svg">
 <!-- Generator: Sketch 50.2 (55047) - http://www.bohemiancoding.com/sketch -->
 <title>Logo</title>
 <desc>Created with Sketch.</desc>

 <g>
  <title>Layer 1</title>
  <g fill-rule="evenodd" fill="none" id="Symbols">
   <g id="p1/header-1200">
    <g id="Logo">
     <g id="Group-3">
      <g fill-rule="nonzero" id="Group-2">
       <g fill="#000000" id="Group">
        <polygon points="15.657761573791504,0 15.766119003295898,75.36144256591797 25.40999984741211,75.36144256591797 25.3016414642334,89.5662612915039 0.4876117706298828,89.5662612915039 0.4876117706298828,0 " id="Shape"/>
        <polygon points="44.10179138183594,89.51204681396484 28.823284149169922,89.51204681396484 28.823284149169922,0 44.10179138183594,0 " id="Shape"/>
        <path id="Shape" d="m47.94851,0l23.0803,0c6.12224,0 10.13149,3.14458 10.13149,11.33133l0,20.22289c0,6.01807 -3.95508,8.78313 -5.90552,9.37951c2.38387,0.59639 7.09746,3.25302 7.09746,10.46386l0,24.56024c0,9.05421 -3.84672,13.60843 -11.43179,13.60843l-22.97194,0l0,-89.56626zm15.27851,11.27711l0,25.53614l1.08358,0c1.19194,0 1.78791,-0.70482 1.78791,-2.27711l0,-21.09036c0,-1.57229 -0.21672,-2.16867 -1.78791,-2.16867l-1.08358,0zm0,36.59638l0,29.98193l1.46283,0c1.5712,0 1.78791,-0.70483 1.78791,-2.2771l0,-25.26507c0,-1.78915 -0.37925,-2.38554 -1.78791,-2.38554l-1.46283,0l0,-0.05422z"/>
        <path id="Shape" d="m100.98985,89.51205l-15.27851,0l0,-89.51205l23.67627,0c5.30956,0 9.48135,3.36145 9.48135,10.73494l0,21.09036c0,6.12651 -2.8715,8.56627 -5.41792,9.6506c2.54642,1.08434 5.63463,3.63253 5.63463,8.29518l0,35.51205c0,1.78916 0.21672,3.14458 0.70433,3.95784l0,0.37952l-15.06179,0c-0.59597,-0.86747 -0.97523,-2.06024 -0.97523,-3.74097l0,-33.56024c0,-1.30121 -0.21671,-2.06024 -1.67955,-2.06024l-1.19194,0l0,39.25301l0.10836,0zm0,-52.10241l1.19194,0c1.08358,0 1.67955,-0.70482 1.67955,-2.06024l0,-22.01205c0,-1.46386 -0.21671,-2.06024 -1.57119,-2.06024l-1.3003,0l0,26.13253z"/>
        <path id="Shape" d="m141.2991,73.40964l-5.14702,0l-0.86687,16.15662l-13.11134,0l7.42254,-89.56626l19.23358,0l8.07268,89.56626l-14.79089,0l-0.81268,-16.15662zm-2.54642,-47.16868l-1.7879,34.0482l3.62999,0l-1.84209,-34.0482z"/>
        <path id="Shape" d="m175.21523,89.51205l-15.2785,0l0,-89.51205l23.73044,0c5.30956,0 9.48135,3.36145 9.48135,10.73494l0,21.09036c0,6.12651 -2.87151,8.56627 -5.41792,9.6506c2.54642,1.08434 5.63463,3.63253 5.63463,8.29518l0,35.51205c0,1.78916 0.21672,3.14458 0.70433,3.95784l0,0.37952l-15.06178,0c-0.59598,-0.86747 -0.97523,-2.06024 -0.97523,-3.74097l0,-33.56024c0,-1.30121 -0.21671,-2.06024 -1.67955,-2.06024l-1.19194,0l0,39.25301l0.05418,0zm0,-52.10241l1.19194,0c1.08359,0 1.67955,-0.70482 1.67955,-2.06024l0,-22.01205c0,-1.46386 -0.21672,-2.06024 -1.5712,-2.06024l-1.30029,0l0,26.13253z"/>
        <polygon points="204.36358642578125,54.27108383178711 194.50299072265625,0 209.6731414794922,0 212.32791137695312,30.95783042907715 214.9285125732422,0 228.5274658203125,0 219.47955322265625,54.27108383178711 219.47955322265625,89.5662612915039 204.3094024658203,89.5662612915039 204.3094024658203,54.27108383178711 " id="Shape"/>
       </g>
       <polygon points="226.52284240722656,72.21686553955078 226.52284240722656,57.469879150390625 230.3695526123047,57.469879150390625 230.3695526123047,68.53012084960938 236.5459747314453,68.53012084960938 236.5459747314453,72.21686553955078 226.52284240722656,72.21686553955078 " fill="#FC4C02" id="Shape"/>
       <polygon points="238.11715698242188,72.21686553955078 238.11715698242188,57.469879150390625 241.96388244628906,57.469879150390625 241.96388244628906,72.21686553955078 " fill="#FC4C02" id="Shape"/>
       <path fill="#FC4C02" id="Shape" d="m244.18523,72.21687l0,-14.74699l5.74298,0c4.00926,0 5.74298,1.35542 5.74298,3.8494c0,1.73494 -0.65015,2.76506 -1.7879,3.36145c1.35448,0.54216 2.16716,1.51806 2.16716,3.30722c0,2.76506 -1.73373,4.28313 -5.47209,4.28313l-6.39313,0l0,-0.05421zm3.68417,-11.81928l0,2.81928l2.22134,0c1.30031,0 1.95045,-0.43374 1.95045,-1.46386c0,-0.92168 -0.54179,-1.35542 -1.95045,-1.35542l-2.22134,0zm0,5.69277l0,2.9277l2.00462,0c1.78792,0 2.32971,-0.48795 2.32971,-1.46386c0,-0.97588 -0.59598,-1.46384 -2.32971,-1.46384l-2.00462,0z"/>
       <path fill="#FC4C02" id="Shape" d="m261.19745,67.28313l0,4.93375l-3.68417,0l0,-14.74699l5.95972,0c4.17178,0 5.79715,1.84337 5.79715,4.60843c0,1.89759 -0.75851,3.03616 -2.11298,3.68675c1.19193,0.48795 1.7879,1.51807 1.7879,3.36144l0,2.33133c0,0.37952 0.10837,0.6506 0.32507,0.81326l-3.84671,0c-0.21671,-0.16265 -0.32507,-0.48796 -0.32507,-0.86747l0,-2.16868c0,-1.46385 -0.54178,-1.89759 -2.05881,-1.89759l-1.8421,0l0,-0.05422zm0,-6.66867l0,3.41566l2.16718,0c1.35449,0 2.05881,-0.6506 2.05881,-1.73494c0,-1.03012 -0.59598,-1.68072 -2.05881,-1.68072l-2.16718,0z"/>
       <path fill="#FC4C02" id="Shape" d="m279.34747,69.61446l-4.9303,0l-0.81268,2.60241l-3.79254,0l5.147,-14.74699l3.84671,0l5.2012,14.74699l-3.79254,0l-0.86685,-2.60241zm-2.49225,-7.86145l-1.46283,4.82531l2.97986,0l-1.51703,-4.82531z"/>
       <path fill="#FC4C02" id="Shape" d="m288.72046,67.28313l0,4.93375l-3.73837,0l0,-14.74699l5.95972,0c4.17178,0 5.79715,1.84337 5.79715,4.60843c0,1.89759 -0.75851,3.03616 -2.11298,3.68675c1.19193,0.48795 1.7879,1.51807 1.7879,3.36144l0,2.33133c0,0.37952 0.10837,0.6506 0.32507,0.81326l-3.84671,0c-0.21671,-0.16265 -0.32507,-0.48796 -0.32507,-0.86747l0,-2.16868c0,-1.46385 -0.54181,-1.89759 -2.05881,-1.89759l-1.7879,0l0,-0.05422zm0,-6.66867l0,3.41566l2.16714,0c1.35449,0 2.05881,-0.6506 2.05881,-1.73494c0,-1.03012 -0.59598,-1.68072 -2.05881,-1.68072l-2.16714,0z"/>
       <polygon points="301.831787109375,72.21686553955078 301.831787109375,66.46987915039062 297.2807312011719,57.469879150390625 301.2900085449219,57.469879150390625 303.83642578125,62.78313064575195 306.4911804199219,57.469879150390625 310.4462585449219,57.469879150390625 305.7326965332031,66.57831573486328 305.7326965332031,72.27108764648438 301.831787109375,72.27108764648438 " fill="#FC4C02" id="Shape"/>
       <path fill="#FC4C02" id="Shape" d="m226.0894,83.00603l0,-1.57229c0,-4.60844 2.54642,-6.93977 6.39314,-6.93977c3.73836,0 6.39313,2.27711 6.39313,6.93977l0,1.57229c0,4.66265 -2.6006,6.88554 -6.39313,6.88554c-4.06345,0 -6.39314,-2.16867 -6.39314,-6.88554zm8.83119,-0.21688l0,-1.19276c0,-2.49397 -0.7585,-3.74096 -2.43805,-3.74096c-1.73373,0 -2.43806,1.30119 -2.43806,3.68674l0,1.19277c0,2.43976 0.70433,3.68674 2.43806,3.68674c1.67955,0.05423 2.43805,-1.13855 2.43805,-3.63253z"/>
       <polygon points="244.2935791015625,84.36144256591797 244.2935791015625,89.5662612915039 240.60940551757812,89.5662612915039 240.60940551757812,74.81927490234375 250.57835388183594,74.81927490234375 250.57835388183594,78.18072509765625 244.2935791015625,78.18072509765625 244.2935791015625,81.05421447753906 250.30746459960938,81.05421447753906 250.30746459960938,84.41566467285156 244.2935791015625,84.41566467285156 " fill="#FC4C02" id="Shape"/>
       <path fill="#FC4C02" id="Shape" d="m255.94209,83.22289l0,-1.89759c0,-4.55421 2.49223,-6.83133 6.44731,-6.83133c3.84671,0 6.12222,1.89759 6.33896,5.74699l0,0.43373l-3.95508,0l0,-0.21687c-0.10837,-1.73494 -0.75851,-2.60241 -2.32971,-2.60241c-1.73373,0 -2.49222,1.19276 -2.49222,3.68674l0,1.30122c0,2.38553 0.81268,3.52409 2.49222,3.52409c1.5712,0 2.22134,-0.92168 2.38388,-2.71085l0,-0.27108l4.00928,0l0,0.37952c-0.16257,4.1747 -2.43808,6.07229 -6.5015,6.07229c-4.17181,0.05421 -6.39314,-2.11446 -6.39314,-6.61446z"/>
       <path fill="#FC4C02" id="Shape" d="m269.92029,83.00603l0,-1.57229c0,-4.60844 2.54642,-6.93977 6.39316,-6.93977c3.73834,0 6.39313,2.27711 6.39313,6.93977l0,1.57229c0,4.66265 -2.60062,6.88554 -6.39313,6.88554c-4.06345,0 -6.39316,-2.16867 -6.39316,-6.88554zm8.83121,-0.21688l0,-1.19276c0,-2.49397 -0.75851,-3.74096 -2.43805,-3.74096c-1.73373,0 -2.43808,1.30119 -2.43808,3.68674l0,1.19277c0,2.43976 0.70435,3.68674 2.43808,3.68674c1.67953,0.05423 2.43805,-1.13855 2.43805,-3.63253z"/>
       <polygon points="287.9619445800781,80.72891235351562 287.9619445800781,89.5662612915039 284.4403076171875,89.5662612915039 284.4403076171875,74.81927490234375 287.9619445800781,74.81927490234375 293.3798522949219,83.5481948852539 293.3798522949219,74.81927490234375 296.9014892578125,74.81927490234375 296.9014892578125,89.5662612915039 293.48822021484375,89.5662612915039 " fill="#FC4C02" id="Shape"/>
       <path fill="#FC4C02" id="Shape" d="m307.7915,86.1506c-0.32507,2.06026 -1.51703,3.74097 -4.11761,3.74097c-3.4133,0 -4.9845,-2.06024 -4.9845,-6.7771l0,-1.78916c0,-4.60843 2.49225,-6.83133 6.5015,-6.83133c3.84671,0 5.90552,1.95182 5.95972,5.58435l0,0.10841l-3.84671,0c-0.0542,-1.46384 -0.65018,-2.33131 -2.22134,-2.33131c-1.78793,0 -2.54642,1.13855 -2.54642,3.63253l0,1.46386c0,2.71084 0.75848,3.63253 2.49222,3.63253c1.46283,0 2.22134,-1.03014 2.32971,-2.33133l-2.60059,0l0,-2.54819l6.33893,0l0,7.91566l-2.97983,0l-0.32507,-3.46989z"/>
       <path fill="#FC4C02" id="Shape" d="m316.78522,84.63253l0,4.93373l-3.68417,0l0,-14.74699l5.95972,0c4.17178,0 5.79715,1.84338 5.79715,4.60844c0,1.89759 -0.75851,3.03614 -2.11298,3.68675c1.19193,0.48795 1.7879,1.51807 1.7879,3.36144l0,2.33132c0,0.37951 0.10837,0.6506 0.32507,0.81326l-3.84671,0c-0.21674,-0.16265 -0.32507,-0.48795 -0.32507,-0.86747l0,-2.16867c0,-1.46386 -0.54181,-1.89761 -2.05881,-1.89761l-1.8421,0l0,-0.05421zm0,-6.66868l0,3.41566l2.16718,0c1.35446,0 2.05881,-0.6506 2.05881,-1.73494c0,-1.03011 -0.59598,-1.68073 -2.05881,-1.68073l-2.16718,0z"/>
       <polygon points="337.15655517578125,89.5662612915039 326.5916442871094,89.5662612915039 326.5916442871094,74.81927490234375 336.9398498535156,74.81927490234375 336.9398498535156,78.01807403564453 330.27581787109375,78.01807403564453 330.27581787109375,80.51204681396484 336.2897033691406,80.51204681396484 336.2897033691406,83.76506042480469 330.27581787109375,83.76506042480469 330.27581787109375,86.259033203125 337.15655517578125,86.259033203125 337.15655517578125,89.5662612915039 " fill="#FC4C02" id="Shape"/>
       <path fill="#FC4C02" id="Shape" d="m337.96927,84.46988l3.95505,0l0,0.05421c0,1.40965 0.70435,2.16868 2.32971,2.16868c1.35449,0 1.95044,-0.6506 1.95044,-1.46386c0,-1.19276 -1.517,-1.40965 -3.19656,-1.78915c-2.22134,-0.48795 -4.71356,-1.19277 -4.71356,-4.39157c0,-2.60239 1.89624,-4.5 5.63461,-4.5c3.79254,0 5.74298,1.73494 5.74298,4.82531l-3.79254,0c-0.05417,-1.24699 -0.65015,-1.78915 -2.05881,-1.78915c-1.30029,0 -1.7879,0.59639 -1.7879,1.35542c0,1.08434 1.40866,1.30121 3.08823,1.68073c2.22131,0.48795 4.76776,1.24699 4.82193,4.5c0,2.87349 -2.00464,4.82531 -5.85135,4.82531c-4.55106,-0.05423 -6.06805,-2.00603 -6.12222,-5.47591z"/>
       <path fill="#FC4C02" id="Shape" d="m350.59299,84.46988l3.95508,0l0,0.05421c0,1.40965 0.70432,2.16868 2.32968,2.16868c1.35449,0 1.95047,-0.6506 1.95047,-1.46386c0,-1.19276 -1.51703,-1.40965 -3.19656,-1.78915c-2.22134,-0.48795 -4.71359,-1.19277 -4.71359,-4.39157c0,-2.60239 1.89627,-4.5 5.63461,-4.5c3.79254,0 5.74301,1.73494 5.74301,4.82531l-3.79254,0c-0.0542,-1.24699 -0.65015,-1.78915 -2.05881,-1.78915c-1.30029,0 -1.7879,0.59639 -1.7879,1.35542c0,1.08434 1.40863,1.30121 3.0882,1.68073c2.22134,0.48795 4.76776,1.24699 4.82193,4.5c0,2.87349 -2.00461,4.82531 -5.85135,4.82531c-4.55103,-0.05423 -6.06805,-2.00603 -6.12222,-5.47591z"/>
      </g>
     </g>
    </g>
   </g>
  </g>
  <rect id="svg_1" height="34" width="133" y="54.78333" x="228.5" stroke-width="5" stroke="#000000" fill="#FF0000"/>
  <text transform="rotate(2.17895e-05, 272.522, 69.8931) matrix(1.6907, 0, 0, 1.5303, -186.541, -26.0821)" xml:space="preserve" text-anchor="middle" font-family="serif" font-size="24" id="svg_2" y="70.78333" x="271.5" stroke-width="0" stroke="#000000" fill="#000000">.net</text>
 </g>
</svg>